<svg xmlns="http://www.w3.org/2000/svg" width="149" height="34" viewBox="0 0 149 34" role="img" aria-label="Framer Motion"><title>Framer Motion</title><rect x="0.5" y="0.5" width="148" height="33" rx="7" fill="#0055FF"/><g transform="translate(12 9.0) scale(0.6666666666666666)"><path fill="#FFFFFF" d="M4 0h16v8h-8zM4 8h8l8 8H4zM4 16h8v8z"/></g><path fill="#FFFFFF" d="M36.9228515625 22.04H39.0078125V18.12984375H43.1708984375V16.4276953125H39.0078125V13.5839453125H43.6220703125V11.854453125H36.9228515625ZM45.091796875 22.04H47.142578125V17.69234375C47.142578125 16.7421484375 47.8330078125 16.092734375 48.7763671875 16.092734375C49.0771484375 16.092734375 49.48046875 16.1405859375 49.6650390625 16.1952734375V14.3632421875C49.48046875 14.3222265625 49.2138671875 14.2948828125 49.001953125 14.2948828125C48.140625 14.2948828125 47.4365234375 14.7870703125 47.15625 15.7304296875H47.07421875V14.397421875H45.091796875ZM52.92578125 22.190390625C54.0537109375 22.190390625 54.7919921875 21.6913671875 55.1611328125 20.9804296875H55.2294921875V22.04H57.1708984375V16.8925390625C57.1708984375 15.04 55.5712890625 14.30171875 53.9306640625 14.30171875C52.2216796875 14.30171875 50.9912109375 15.0605078125 50.6015625 16.3866796875L52.4814453125 16.7011328125C52.6455078125 16.2089453125 53.130859375 15.819296875 53.923828125 15.819296875C54.689453125 15.819296875 55.1201171875 16.1884375 55.1201171875 16.8378515625V16.87203125C55.1201171875 17.3710546875 54.580078125 17.4257421875 53.267578125 17.555625C51.763671875 17.6991796875 50.3828125 18.1913671875 50.3828125 19.9003515625C50.3828125 21.41109375 51.4697265625 22.190390625 52.92578125 22.190390625ZM53.5068359375 20.7480078125C52.830078125 20.7480078125 52.3515625 20.440390625 52.3515625 19.8456640625C52.3515625 19.2304296875 52.857421875 18.936484375 53.6162109375 18.827109375C54.0673828125 18.7655859375 54.880859375 18.6562109375 55.1337890625 18.4784765625V19.305625C55.1337890625 20.112265625 54.4638671875 20.7480078125 53.5068359375 20.7480078125ZM58.9208984375 22.04H60.9716796875V17.41890625C60.9716796875 16.502890625 61.525390625 15.99703125 62.25 15.99703125C62.947265625 15.99703125 63.439453125 16.475546875 63.439453125 17.2206640625V22.04H65.421875V17.336875C65.421875 16.5370703125 65.900390625 15.99703125 66.6796875 15.99703125C67.3701171875 15.99703125 67.8896484375 16.4140234375 67.8896484375 17.2753515625V22.04H69.947265625V16.885703125C69.947265625 15.2245703125 68.908203125 14.2812109375 67.5068359375 14.2812109375C66.4541015625 14.2812109375 65.4833984375 14.82125 65.052734375 15.99703125C64.697265625 14.834921875 64.0615234375 14.2812109375 63.083984375 14.2812109375C62.16796875 14.2812109375 61.3134765625 14.7665625 60.9033203125 15.8808203125L60.8212890625 14.397421875H58.9208984375ZM75.1494140625 22.190390625C76.9267578125 22.190390625 78.1435546875 21.3632421875 78.51953125 20.0917578125L76.66015625 19.743125C76.44140625 20.331015625 75.9013671875 20.64546875 75.18359375 20.64546875C74.1513671875 20.64546875 73.4541015625 20.002890625 73.40625 18.7519140625H78.6357421875V18.1776953125C78.6357421875 15.5663671875 77.04296875 14.30171875 75.046875 14.30171875C72.8115234375 14.30171875 71.3759765625 15.901328125 71.3759765625 18.2597265625C71.3759765625 20.6728125 72.8115234375 22.190390625 75.1494140625 22.190390625ZM73.419921875 17.4667578125C73.501953125 16.5233984375 74.08984375 15.846640625 75.0673828125 15.846640625C76.017578125 15.846640625 76.5576171875 16.4687109375 76.66015625 17.4667578125ZM80.037109375 22.04H82.087890625V17.69234375C82.087890625 16.7421484375 82.7783203125 16.092734375 83.7216796875 16.092734375C84.0224609375 16.092734375 84.42578125 16.1405859375 84.6103515625 16.1952734375V14.3632421875C84.42578125 14.3222265625 84.1591796875 14.2948828125 83.947265625 14.2948828125C83.0859375 14.2948828125 82.3818359375 14.7870703125 82.1015625 15.7304296875H82.01953125V14.397421875H80.037109375ZM89.1015625 22.04H91.1728515625V17.2343359375C91.1728515625 16.4687109375 91.1181640625 14.971640625 91.09765625 13.7343359375C91.4599609375 15.1015234375 91.8701171875 16.530234375 92.109375 17.2343359375L93.8251953125 22.04H95.58203125L97.2705078125 17.2343359375C97.509765625 16.5097265625 97.9404296875 15.026328125 98.2822265625 13.6523046875C98.26171875 14.9374609375 98.20703125 16.4687109375 98.20703125 17.2343359375V22.04H100.3056640625V11.854453125H97.0927734375L95.4658203125 16.530234375C95.2607421875 17.1796484375 94.9462890625 18.54 94.7138671875 19.6405859375C94.474609375 18.5331640625 94.16015625 17.1728125 93.955078125 16.530234375L92.30078125 11.854453125H89.1015625ZM105.5146484375 22.190390625C107.8115234375 22.190390625 109.25390625 20.604453125 109.25390625 18.252890625C109.25390625 15.88765625 107.8115234375 14.30171875 105.5146484375 14.30171875C103.2109375 14.30171875 101.775390625 15.88765625 101.775390625 18.252890625C101.775390625 20.604453125 103.2109375 22.190390625 105.5146484375 22.190390625ZM105.5146484375 20.577109375C104.4208984375 20.577109375 103.8671875 19.5790625 103.8671875 18.2460546875C103.8671875 16.8925390625 104.4208984375 15.915 105.5146484375 15.915C106.6083984375 15.915 107.1689453125 16.899375 107.1689453125 18.2460546875C107.1689453125 19.5790625 106.6083984375 20.577109375 105.5146484375 20.577109375ZM114.4765625 14.397421875H113.0478515625V12.5790625H110.9970703125V14.397421875H109.9443359375V15.9628515625H110.9970703125V19.9823828125C110.9970703125 21.38375 111.8310546875 22.149375 113.3623046875 22.149375C113.7724609375 22.149375 114.23046875 22.1015234375 114.6884765625 21.9648046875L114.39453125 20.42671875C114.244140625 20.467734375 113.90234375 20.5155859375 113.7451171875 20.5155859375C113.24609375 20.5155859375 113.0478515625 20.29 113.0478515625 19.8046484375V15.9628515625H114.4765625ZM115.8095703125 22.04H117.8603515625V14.397421875H115.8095703125ZM116.8349609375 13.399375C117.4501953125 13.399375 117.962890625 12.93453125 117.962890625 12.346640625C117.962890625 11.7655859375 117.4501953125 11.29390625 116.8349609375 11.29390625C116.212890625 11.29390625 115.70703125 11.7655859375 115.70703125 12.346640625C115.70703125 12.93453125 116.212890625 13.399375 116.8349609375 13.399375ZM123.021484375 22.190390625C125.318359375 22.190390625 126.7607421875 20.604453125 126.7607421875 18.252890625C126.7607421875 15.88765625 125.318359375 14.30171875 123.021484375 14.30171875C120.7177734375 14.30171875 119.2822265625 15.88765625 119.2822265625 18.252890625C119.2822265625 20.604453125 120.7177734375 22.190390625 123.021484375 22.190390625ZM123.021484375 20.577109375C121.927734375 20.577109375 121.3740234375 19.5790625 121.3740234375 18.2460546875C121.3740234375 16.8925390625 121.927734375 15.915 123.021484375 15.915C124.115234375 15.915 124.67578125 16.899375 124.67578125 18.2460546875C124.67578125 19.5790625 124.115234375 20.577109375 123.021484375 20.577109375ZM130.240234375 17.6171484375C130.240234375 16.6054296875 130.8486328125 16.0175390625 131.7236328125 16.0175390625C132.5849609375 16.0175390625 133.1044921875 16.584921875 133.1044921875 17.5351171875V22.04H135.1552734375V17.1796484375C135.1552734375 15.3886328125 134.1162109375 14.30171875 132.5302734375 14.30171875C131.3544921875 14.30171875 130.58203125 14.9101171875 130.1513671875 15.9765234375L130.1240234375 14.397421875H128.189453125V22.04H130.240234375Z"/></svg>